<svg fill="none" xmlns="http://www.w3.org/2000/svg">
  <symbol id="search" viewBox="0 0 32 33" fill="none">
    <g clip-path="url(#clip0_1086_2541)">
      <path
        d="M19.5653 19.7529L26.2346 26.4222M19.2961 6.95288C22.7564 10.4132 22.7564 16.0234 19.2961 19.4836C15.8359 22.9439 10.2257 22.9439 6.76538 19.4836C3.30511 16.0234 3.30511 10.4132 6.76538 6.95288C10.2257 3.49261 15.8359 3.49261 19.2961 6.95288Z"
        stroke="currentColor" stroke-width="2" stroke-linecap="round" stroke-linejoin="round" />
    </g>
    <defs>
      <clipPath id="clip0_1086_2541">
        <rect width="32" height="32" fill="white" transform="translate(0 0.1875)" />
      </clipPath>
    </defs>
  </symbol>

  <symbol id='youtube' viewBox="0 0 33 33" fill="none">
    <path
      d="M29.0266 11.0578C29.2302 12.4659 29.332 13.854 29.332 15.222V17.1532L29.0266 21.3174C28.8637 22.4842 28.5177 23.3291 27.9884 23.8521C27.4184 24.4154 26.5634 24.7775 25.4234 24.9384C24.3241 25.0189 23.0009 25.0793 21.4537 25.1195C19.9473 25.1597 18.7055 25.1798 17.7284 25.1798H16.2626C11.7433 25.1396 8.79155 25.0591 7.40726 24.9384C7.40726 24.9384 7.2444 24.9183 6.91869 24.8781C6.59297 24.8378 6.32833 24.7976 6.12476 24.7574C5.92119 24.7171 5.65654 24.6166 5.33083 24.4556C5.04583 24.2947 4.78118 24.0935 4.5369 23.8521C4.33333 23.6107 4.12975 23.2888 3.92618 22.8865C3.76332 22.4439 3.66154 22.0617 3.62082 21.7398L3.49868 21.3174C3.33582 19.9092 3.25439 18.5211 3.25439 17.1532V15.222L3.49868 11.0578C3.66154 9.89098 4.00761 9.04607 4.5369 8.52303C5.1069 7.91952 5.98226 7.55742 7.16298 7.43672C8.26226 7.35625 9.56512 7.2959 11.0716 7.25566C12.578 7.21543 13.8198 7.19531 14.7969 7.19531H16.2626C19.9269 7.19531 22.9805 7.27578 25.4234 7.43672C26.5634 7.55742 27.4184 7.91952 27.9884 8.52303C28.1512 8.68396 28.2937 8.88513 28.4159 9.12654C28.538 9.32771 28.6398 9.54899 28.7212 9.79039C28.8027 9.99156 28.8637 10.1927 28.9045 10.3939C28.9452 10.5951 28.9859 10.756 29.0266 10.8767V11.0578ZM19.8048 16.3686L20.6598 15.9462L13.6366 12.3251V19.5672L19.8048 16.3686Z"
      fill="currentColor" />
  </symbol>

  <symbol id='telegram' viewBox="0 0 33 33" fill="none">
    <path
      d="M24.0163 25.6789C23.7386 26.9159 23.0065 27.2188 21.9715 26.6382L16.3169 22.473L13.5906 25.0983C13.2877 25.4013 13.0352 25.6537 12.4546 25.6537L12.8585 19.8981L23.3347 10.4317C23.7891 10.0278 23.2337 9.80061 22.6279 10.2045L9.67781 18.3582L4.09893 16.6164C2.88723 16.2378 2.86199 15.4047 4.35137 14.8241L26.162 6.41794C27.1717 6.03928 28.0553 6.64513 27.7271 8.18501L24.0163 25.6789Z"
      fill="currentColor" />
  </symbol>

  <symbol id='instagram' viewBox="0 0 33 33" fill="none">
    <path
      d="M21.4084 3.53296H11.1788C7.02143 3.53296 3.63916 6.91523 3.63916 11.0726V21.3022C3.63916 25.4595 7.02143 28.8418 11.1788 28.8418H21.4084C25.5657 28.8418 28.948 25.4595 28.948 21.3022V11.0726C28.948 6.91523 25.5657 3.53296 21.4084 3.53296ZM26.4019 21.3022C26.4019 24.06 24.1662 26.2957 21.4084 26.2957H11.1788C8.42095 26.2957 6.18523 24.06 6.18523 21.3022V11.0726C6.18523 8.31471 8.42095 6.07903 11.1788 6.07903H21.4084C24.1662 6.07903 26.4019 8.31471 26.4019 11.0726V21.3022Z"
      fill="currentColor" />
    <path
      d="M16.2936 9.64164C12.6842 9.64164 9.74779 12.5781 9.74779 16.1874C9.74779 19.7967 12.6842 22.7331 16.2936 22.7331C19.9029 22.7331 22.8393 19.7967 22.8393 16.1874C22.8393 12.578 19.9029 9.64164 16.2936 9.64164ZM16.2936 20.1871C14.0846 20.1871 12.2939 18.3964 12.2939 16.1874C12.2939 13.9784 14.0846 12.1877 16.2936 12.1877C18.5026 12.1877 20.2933 13.9784 20.2933 16.1874C20.2933 18.3964 18.5025 20.1871 16.2936 20.1871Z"
      fill="currentColor" />
    <path
      d="M22.9769 11.2101C23.8431 11.2101 24.5454 10.5079 24.5454 9.64164C24.5454 8.77538 23.8431 8.07314 22.9769 8.07314C22.1106 8.07314 21.4084 8.77538 21.4084 9.64164C21.4084 10.5079 22.1106 11.2101 22.9769 11.2101Z"
      fill="currentColor" />
  </symbol>

  <symbol id="aparat" viewBox="0 0 33 33" fill="none">
    <path
      d="M27.7809 8.1237C27.349 7.83683 26.8653 7.67351 26.3721 7.5187C25.6945 7.29907 25.0168 7.07944 24.3396 6.85081C25.5507 7.94154 26.5372 9.20014 27.2614 10.6606C27.9951 12.1126 28.41 13.6547 28.5691 15.2816C28.8497 14.4391 29.1307 13.5876 29.4023 12.7446C29.9674 10.9875 29.3103 9.13327 27.7809 8.1237Z"
      fill="currentColor" />
    <path
      d="M13.19 3.20158C12.6006 3.0051 12.0003 2.84413 11.361 2.89784C9.73084 3.03931 8.54705 3.84807 7.87006 5.36372C7.60274 5.97199 7.45002 6.61395 7.23528 7.24331C7.1705 7.43842 7.10623 7.62453 7.05039 7.82015C8.12691 6.68893 9.35254 5.77412 10.7446 5.08576C12.1367 4.39741 13.6113 3.99396 15.1963 3.85893C15.1263 3.8278 15.0822 3.81623 15.0385 3.79565C14.4218 3.60664 13.8057 3.40862 13.19 3.20158Z"
      fill="currentColor" />
    <path
      d="M17.4088 28.5051C17.4345 28.5246 17.4519 28.5347 17.4782 28.5452C18.2348 28.7965 18.9913 29.0478 19.7484 29.29C21.518 29.8524 23.3836 29.1913 24.3926 27.6675C24.6771 27.232 24.8385 26.7532 24.9915 26.2649C25.2093 25.5815 25.4361 24.8986 25.6628 24.2157C23.4434 26.7003 20.7009 28.1336 17.4088 28.5051Z"
      fill="currentColor" />
    <path
      d="M5.21958 21.85C4.51608 20.4992 4.07671 19.0731 3.91144 17.5543C3.87673 17.5343 3.86627 17.5608 3.85632 17.5783C3.6301 18.2522 3.41232 18.9356 3.1861 19.6095C2.54523 21.5972 3.48348 23.7116 5.38082 24.5525C5.94035 24.8015 6.53277 24.9439 7.11321 25.1399C7.38557 25.2369 7.66736 25.3253 7.94023 25.4133C6.83379 24.3737 5.91415 23.2003 5.21958 21.85Z"
      fill="currentColor" />
    <path
      d="M27.5628 15.2233C27.3706 13.0703 26.6569 11.1044 25.3186 9.40986C22.5929 5.93666 19.0009 4.47438 14.6593 5.02066C12.078 5.34256 9.85198 6.5163 8.0766 8.43891C5.40306 11.3493 4.43817 14.7916 5.28628 18.6632C6.36922 23.6147 10.6235 27.1575 15.7864 27.4627C17.4306 27.548 19.1408 27.2574 20.7845 26.5564C25.2296 24.6514 27.9997 20.0293 27.5628 15.2233ZM13.5381 7.73996C15.3068 7.84142 16.6811 9.37532 16.582 11.132C16.4814 12.9157 14.9614 14.2836 13.1926 14.1821C11.406 14.0796 10.0312 12.5547 10.1313 10.78C10.2314 9.00536 11.7693 7.6385 13.5381 7.73996ZM11.0241 22.5984C9.26475 22.4884 7.91726 20.956 8.01685 19.1904C8.12639 17.4072 9.65537 16.0398 11.4231 16.1593C13.2266 16.2808 14.5657 17.8037 14.4556 19.5959C14.3466 21.37 12.8102 22.7099 11.0241 22.5984ZM14.8016 16.1633C14.8458 15.3795 15.5251 14.7768 16.3112 14.8219C17.1062 14.8675 17.7044 15.5435 17.6597 16.3363C17.6155 17.12 16.9362 17.7227 16.1501 17.6776C15.3545 17.641 14.7564 16.9651 14.8016 16.1633ZM19.0385 24.6216C17.2529 24.5011 15.9054 22.9687 16.0244 21.1771C16.1324 19.4209 17.6788 18.0636 19.4465 18.183C21.2148 18.2935 22.5796 19.8359 22.4716 21.5921C22.3531 23.3747 20.8152 24.7416 19.0385 24.6216ZM21.1713 16.2033C19.3589 16.0813 18.0209 14.5404 18.1414 12.7217C18.2583 10.9661 19.8121 9.63626 21.5977 9.75676C23.3565 9.87572 24.6941 11.4256 24.5761 13.1993C24.4586 14.9639 22.9212 16.3218 21.1713 16.2033Z"
      fill="currentColor" />
  </symbol>

  <symbol id="logo-colorly" viewBox="0 0 300 59" fill="none">
    <g clip-path="url(#clip0_1086_2525)">
      <path
        d="M260.373 17.3954C254.644 11.6269 245.357 11.6269 239.629 17.3954L238.223 18.8109L238.007 18.5939C230.691 11.2259 218.829 11.2259 211.514 18.5939L196.271 33.9433L206.978 44.7251C197.007 47.0985 190.149 40.3864 190.149 40.3864C197.644 55.5872 217.704 59.6144 231.389 46.5512C234.69 43.3992 260.375 17.393 260.375 17.393L260.373 17.3954ZM221.842 34.7902C220.246 34.7902 218.953 33.4879 218.953 31.8813C218.953 30.2746 220.246 28.9723 221.842 28.9723C223.437 28.9723 224.73 30.2746 224.73 31.8813C224.73 33.4879 223.437 34.7902 221.842 34.7902Z"
        fill="white" />
      <path
        d="M289.083 18.5939C281.766 11.2259 269.904 11.2259 262.589 18.5939L247.347 33.9433L258.054 44.7251C248.082 47.0985 241.225 40.3864 241.225 40.3864C248.719 55.5872 268.779 59.6144 282.464 46.5512C286.876 42.3399 299.656 29.2389 299.656 29.2389L289.085 18.5939H289.083ZM272.917 34.7902C271.321 34.7902 270.028 33.4879 270.028 31.8813C270.028 30.2746 271.321 28.9723 272.917 28.9723C274.512 28.9723 275.806 30.2746 275.806 31.8813C275.806 33.4879 274.512 34.7902 272.917 34.7902Z"
        fill="white" />
      <path
        d="M209.188 17.3954C203.46 11.627 194.172 11.627 188.444 17.3954C188.444 17.3954 176.793 29.128 172.159 33.7947C161.773 44.2533 149.294 43.1303 142.629 36.7744C149.463 51.652 170.045 56.0024 183.73 42.9392L209.188 17.3954Z"
        fill="white" />
      <path
        d="M281.259 11.6624C284.322 11.6624 286.805 9.16221 286.805 6.07804C286.805 2.99387 284.322 0.493652 281.259 0.493652C278.197 0.493652 275.714 2.99387 275.714 6.07804C275.714 9.16221 278.197 11.6624 281.259 11.6624Z"
        fill="#FAC739" />
      <path
        d="M268.711 11.6624C271.774 11.6624 274.257 9.16221 274.257 6.07804C274.257 2.99387 271.774 0.493652 268.711 0.493652C265.648 0.493652 263.166 2.99387 263.166 6.07804C263.166 9.16221 265.648 11.6624 268.711 11.6624Z"
        fill="#FAC739" />
      <path
        d="M183.796 11.6624C186.858 11.6624 189.341 9.16221 189.341 6.07804C189.341 2.99387 186.858 0.493652 183.796 0.493652C180.733 0.493652 178.25 2.99387 178.25 6.07804C178.25 9.16221 180.733 11.6624 183.796 11.6624Z"
        fill="#FAC739" />
      <path
        d="M171.247 11.6624C174.31 11.6624 176.793 9.16221 176.793 6.07804C176.793 2.99387 174.31 0.493652 171.247 0.493652C168.185 0.493652 165.702 2.99387 165.702 6.07804C165.702 9.16221 168.185 11.6624 171.247 11.6624Z"
        fill="#FAC739" />
      <path
        d="M237.309 11.6624C240.372 11.6624 242.855 9.16221 242.855 6.07804C242.855 2.99387 240.372 0.493652 237.309 0.493652C234.247 0.493652 231.764 2.99387 231.764 6.07804C231.764 9.16221 234.247 11.6624 237.309 11.6624Z"
        fill="#FAC739" />
    </g>
    <path
      d="M51.791 0.738281C57.5149 6.46688 57.5149 15.7544 51.791 21.4825C51.791 21.4825 44.5174 28.765 39.8866 33.3991C32.3498 40.9359 33.3624 49.473 39.1141 56.3757C23.3867 52.2396 17.8492 35.5124 30.8123 21.8271L51.791 0.738281Z"
      fill="#FAC739" />
    <path
      d="M28.1987 0.73877C33.9226 6.46737 33.9226 15.7549 28.1987 21.483C28.1987 21.483 20.9251 28.7655 16.2943 33.3996C8.75753 40.9364 9.77012 49.4735 15.5218 56.3762C-0.205613 52.2406 -5.74308 35.5133 7.22005 21.8285L28.1987 0.73877Z"
      fill="#FAC739" />
    <path
      d="M107.421 17.1736L88.1471 18.656C76.3269 6.83584 64.9116 12.4679 64.9116 12.4679C70.7598 0.0311058 88.2092 -1.9277 98.4519 8.31448L107.422 17.1731L107.421 17.1736Z"
      fill="#FAC739" />
    <path
      d="M158.224 17.456C152.496 11.7321 143.209 11.7321 137.48 17.456L136.074 18.8607L135.859 18.6456C128.542 11.3343 116.68 11.3343 109.365 18.6456L94.1221 33.8773L104.829 44.5761C94.8579 46.9312 88 40.2706 88 40.2706C95.4949 55.3544 115.555 59.3507 129.24 46.388C132.541 43.2603 158.226 17.4536 158.226 17.4536L158.224 17.456H158.224ZM119.693 34.7171C118.097 34.7171 116.804 33.4249 116.804 31.8304C116.804 30.236 118.097 28.9438 119.693 28.9438C121.288 28.9438 122.581 30.236 122.581 31.8304C122.581 33.4249 121.288 34.7171 119.693 34.7171Z"
      fill="#FAC739" />
    <path
      d="M107.422 17.1735C101.693 11.4496 92.0425 11.7316 86.3139 17.456L84.9083 18.8607L84.6926 18.6456C77.3757 11.3343 65.5137 11.3343 58.1991 18.6456L42.9561 33.8773L53.6634 44.5761C43.6919 46.9312 36.834 40.2706 36.834 40.2706C44.3288 55.3544 64.3891 59.3507 78.0739 46.388C81.3748 43.2603 107.421 17.174 107.421 17.174L107.422 17.1735ZM68.5265 34.7171C66.9311 34.7171 65.6375 33.4249 65.6375 31.8304C65.6375 30.236 66.9311 28.9438 68.5265 28.9438C70.1219 28.9438 71.4151 30.236 71.4151 31.8304C71.4151 33.4249 70.1219 34.7171 68.5265 34.7171Z"
      fill="#FAC739" />
    <path
      d="M135.16 11.767C138.223 11.767 140.706 9.28616 140.706 6.22532C140.706 3.16448 138.223 0.684082 135.16 0.684082C132.097 0.684082 129.615 3.16495 129.615 6.22579C129.615 9.28663 132.097 11.7675 135.16 11.7675V11.767Z"
      fill="white" />
    <path
      d="M9.21881 11.767C12.2815 11.767 14.7643 9.28616 14.7643 6.22532C14.7643 3.16448 12.2815 0.684082 9.21881 0.684082C6.15609 0.684082 3.67334 3.16495 3.67334 6.22579C3.67334 9.28663 6.15609 11.7675 9.21881 11.7675V11.767Z"
      fill="white" />
    <path
      d="M85.4542 58.8522C88.5169 58.8522 90.9996 56.3713 90.9996 53.3105C90.9996 50.2497 88.5169 47.7688 85.4542 47.7688C82.3914 47.7688 79.9087 50.2497 79.9087 53.3105C79.9087 56.3713 82.3914 58.8522 85.4542 58.8522Z"
      fill="white" />
    <defs>
      <clipPath id="clip0_1086_2525">
        <rect width="157.715" height="54.5938" fill="white" transform="translate(142.285 0.154053)" />
      </clipPath>
    </defs>
  </symbol>

  <symbol id="ghonoot" viewBox="0 0 98 79" fill="none">
    <path
      d="M23.8301 57.1886C20.8807 45.1487 10.516 53.086 10.516 41.8164V34.6403C10.516 26.7211 4.39621 26.6697 1.38623 29.3936V49.3194C1.38623 70.4043 12.4576 77.0296 21.5874 77.7696C28.4427 78.325 41.9081 77.0069 44.906 61.6271C47.182 49.955 43.1264 43.9713 44.7698 27.1615C45.1466 23.301 44.2341 21.5123 42.7798 20.8222C41.3255 20.1322 38.4275 20.2441 37.7602 23.9881"
      stroke="currentColor" stroke-width="2" stroke-miterlimit="10" stroke-linecap="round" />
    <path
      d="M74.1857 57.1886C77.1352 45.1487 87.4998 53.086 87.4998 41.8164V34.6403C87.4998 26.7211 93.6197 26.6697 96.6296 29.3936V49.3194C96.6296 70.4043 85.5583 77.0296 76.4285 77.7696C69.5732 78.325 56.1077 77.0069 53.1099 61.6271C50.8338 49.955 54.8895 43.9713 53.246 27.1615C52.8692 23.301 53.7818 21.5123 55.2361 20.8222C56.6903 20.1322 59.5883 20.2441 60.2557 23.9881"
      stroke="currentColor" stroke-width="2" stroke-miterlimit="10" stroke-linecap="round" />
    <path
      d="M36.2395 41.0475C36.6496 26.6711 38.5413 20.2456 39.6732 13.808C40.8264 7.25079 32.1581 5.09735 30.8794 12.3113"
      stroke="currentColor" stroke-width="2" stroke-miterlimit="10" stroke-linecap="round" />
    <path
      d="M61.7763 41.0475C61.3662 26.6711 59.4746 20.2456 58.3426 13.808C57.1895 7.25079 65.8577 5.09735 67.1365 12.3113"
      stroke="currentColor" stroke-width="2" stroke-miterlimit="10" stroke-linecap="round" />
    <path
      d="M27.7545 37.4655C28.5763 19.2559 30.8735 13.4629 31.6952 8.25865C32.8574 0.893372 24.0681 -1.32514 22.4337 7.09794C22.0539 9.05768 21.9253 9.60399 21.6211 11.2429"
      stroke="currentColor" stroke-width="2" stroke-miterlimit="10" stroke-linecap="round" />
    <path
      d="M70.2618 37.4655C69.4401 19.2559 67.1429 13.4629 66.3212 8.25865C65.1589 0.893372 73.9482 -1.32514 75.5826 7.09794C75.9625 9.05768 76.0911 9.60399 76.3953 11.2429"
      stroke="currentColor" stroke-width="2" stroke-miterlimit="10" stroke-linecap="round" />
    <path
      d="M18.812 34.3891C19.5414 21.3413 21.0789 15.6997 21.7054 10.5802C22.2275 6.31717 20.3344 4.34987 18.2415 4.02905C15.7233 3.64164 12.8662 5.36681 12.1519 10.2775C11.0986 17.5021 9.52783 30.1261 9.52783 30.1261"
      stroke="currentColor" stroke-width="2" stroke-miterlimit="10" stroke-linecap="round" />
    <path
      d="M79.2039 34.3891C78.4745 21.3413 76.9369 15.6997 76.3104 10.5802C75.7883 6.31717 77.6815 4.34987 79.7744 4.02905C82.2925 3.64164 85.1497 5.36681 85.864 10.2775C86.9172 17.5021 88.488 30.1261 88.488 30.1261"
      stroke="currentColor" stroke-width="2" stroke-miterlimit="10" stroke-linecap="round" />
  </symbol>

  <symbol id='image' viewBox="0 0 33 33" fill="none">
    <path
      d="M4.19205 20.2387C4.19205 20.2387 9.60657 13.9973 11.0593 13.997C12.5121 13.9967 18.3501 19.7016 18.3501 19.7016M18.3501 19.7016L24.1924 25.7224M18.3501 19.7016C18.3501 19.7016 20.7056 16.632 22.1373 16.672C23.5689 16.712 28.7039 22.4233 28.7039 22.4233M4.83251 7.77568C6.12196 6.40753 26.928 6.50661 28.0549 7.77568C29.1817 9.04475 29.6109 22.9662 28.0549 24.9194C26.4989 26.8725 5.93796 26.4009 4.83251 24.9194C3.72707 23.4378 3.54307 9.14383 4.83251 7.77568ZM21.1667 11.9985C21.1667 13.2532 20.1105 14.2703 18.8075 14.2703C17.5045 14.2703 16.4482 13.2532 16.4482 11.9985C16.4482 10.7438 17.5045 9.72665 18.8075 9.72665C20.1105 9.72665 21.1667 10.7438 21.1667 11.9985Z"
      stroke="currentColor" stroke-width="1.5" stroke-miterlimit="10" stroke-linecap="round"
      stroke-linejoin="round" />
  </symbol>

  <symbol id="star" viewBox="0 0 33 33" fill="none">
    <path
      d="M10.5263 29.0298C10.0824 29.0298 9.66025 28.9499 9.27451 28.7902C8.13187 28.3256 7.54963 27.2004 7.54235 25.4436C7.53508 24.2966 7.76069 22.9827 7.99359 21.7341C8.0882 21.2332 8.26287 20.2822 8.29926 19.7668C7.17846 18.8884 4.08532 16.2459 3.96887 13.8576C3.9252 13.0227 4.23815 12.2605 4.8495 11.7233C5.75197 10.9175 7.10568 10.5255 8.98339 10.5255C9.90042 10.5255 10.7665 10.6199 11.3997 10.6852C11.4215 10.6852 11.4433 10.6925 11.4579 10.6925C11.6835 10.2641 11.9819 9.55272 12.1493 9.16071C12.2003 9.0373 12.2512 8.90663 12.3094 8.78322C13.1901 6.65621 14.1944 4.23881 16.2468 3.99199C16.3487 3.97747 16.4506 3.97021 16.5525 3.97021C18.0154 3.97021 19.2526 5.13172 20.337 7.52008C20.7228 8.37669 21.0939 9.40027 21.4287 10.5255C21.5306 10.5255 21.6325 10.5255 21.7417 10.5255C26.1303 10.5255 28.4884 11.4184 28.9542 13.2623C29.4855 15.3748 27.3166 17.1534 25.3952 18.7214C25.0677 18.99 24.5364 19.4256 24.2308 19.7159C24.3254 20.0281 24.4782 20.4637 24.5801 20.7686C24.9658 21.8792 25.4462 23.2585 25.5917 24.5362C25.8465 26.8374 24.8567 27.8973 23.976 28.3837C23.5393 28.6233 23.0517 28.7467 22.5132 28.7467C20.7228 28.7467 18.7795 27.3601 17.2148 26.2422C17.0547 26.126 16.8145 25.9591 16.6034 25.8139C16.3851 25.9663 16.1376 26.1405 15.9848 26.2494C15.7956 26.3874 15.5845 26.5471 15.3589 26.7068C13.9615 27.7304 12.2221 29.0298 10.5263 29.0298Z"
      stroke="currentColor" stroke-width="1.5" stroke-miterlimit="10" stroke-linejoin="round" />
  </symbol>

  <symbol id="question" viewBox="0 0 33 33" fill="none">
    <path
      d="M25.7353 11.1007C25.7353 -1.69317 7.203 -0.250737 7.203 9.50143C7.203 16.2433 13.6803 15.0743 13.6803 19.872V19.872C13.6803 21.0724 14.6535 22.0455 15.8539 22.0455H16.7572C17.9576 22.0455 18.9307 21.0724 18.9307 19.872V19.872C18.9307 12.5971 12.7847 15.0517 12.7847 10.4735C12.7847 5.89531 20.4359 5.58175 20.4359 11.1007V11.1007C20.4359 12.363 21.4592 13.3863 22.7215 13.3863H23.4497C24.712 13.3863 25.7353 12.363 25.7353 11.1007V11.1007Z"
      stroke="currentColor" stroke-width="1.5" stroke-miterlimit="10" stroke-linecap="round"
      stroke-linejoin="round" />
    <path
      d="M13.2332 28.1059C13.2332 29.7892 14.5977 31.1537 16.281 31.1537H16.4971C18.1804 31.1537 19.5449 29.7892 19.5449 28.1059V28.1059C19.5449 26.4227 18.1804 25.0581 16.4971 25.0581H16.281C14.5977 25.0581 13.2332 26.4227 13.2332 28.1059V28.1059Z"
      stroke="currentColor" stroke-width="1.5" stroke-miterlimit="10" stroke-linecap="round"
      stroke-linejoin="round" />
  </symbol>

  <symbol id="book" viewBox="0 0 33 33" fill="none">
    <path
      d="M7.05503 7.05113C7.05503 3.59416 11.8949 3.77406 16.276 3.77406C20.6571 3.77406 24.7362 4.23036 24.7362 4.23036L24.7775 9.87162M7.05503 7.05113C7.05503 9.95716 11.7953 9.87083 15.9896 9.87122C20.184 9.87162 24.3938 9.87122 25.9452 9.87122C25.9452 9.87122 26.326 14.3597 26.326 19.3202C26.326 24.2807 25.9445 28.7692 25.9445 28.7692C25.9445 28.7692 22.7961 29.0613 17.9503 29.0613C13.1045 29.0613 9.95608 28.7695 9.95608 28.7695C8.35388 28.7695 7.05503 27.4701 7.05503 25.8671C7.05503 25.8671 6.79443 21.7835 6.79443 16.4214C6.79443 11.0593 7.05503 7.05113 7.05503 7.05113Z"
      stroke="currentColor" stroke-width="1.5" stroke-miterlimit="10" stroke-linecap="round"
      stroke-linejoin="round" />
  </symbol>

  <symbol id="copy" viewBox="0 0 33 33" fill="none">
    <path
      d="M23.7293 25.7055C23.7293 25.7055 26.3499 25.9613 27.1641 25.3458C27.9782 24.7303 27.2569 4.54173 26.8637 3.84479C26.4705 3.14785 9.98344 3.00893 9.37915 3.61312C8.77486 4.2173 9.14906 7.0225 9.14906 7.0225M5.97796 7.24609C6.47811 6.83914 22.9187 6.93202 23.4625 7.24609C24.0063 7.56016 23.9403 28.2241 23.4625 29.1068C22.9847 29.9894 6.82452 29.9894 5.97796 29.1068C5.13139 28.2241 5.47781 7.65303 5.97796 7.24609Z"
      stroke="currentColor" stroke-width="1.5" stroke-miterlimit="10" stroke-linecap="round"
      stroke-linejoin="round" />
  </symbol>

  <symbol id="profile" viewBox="0 0 33 33" fill="none">
    <path
      d="M16.5431 16.0551C3.61826 16.0551 5.34371 27.3659 5.34371 27.3659C5.34371 27.3659 9.67294 29.1478 16.4993 29.1478C23.3257 29.1478 27.6549 27.366 27.6549 27.366C27.6549 27.366 29.4679 16.0551 16.5431 16.0551ZM16.5431 16.0551C13.1801 16.0551 10.4415 13.3022 10.4273 9.93924C10.4273 6.59044 13.1659 3.85181 16.5431 3.85181C19.9202 3.85181 22.6589 6.59044 22.6589 9.93924C22.6447 13.3022 19.906 16.0551 16.5431 16.0551Z"
      stroke="currentColor" stroke-width="1.5" stroke-miterlimit="10" stroke-linecap="round"
      stroke-linejoin="round" />
  </symbol>

  <symbol id="negar-khane" viewBox="0 0 49 48" fill="none">
    <path
      d="M6.38499 29.6101C6.38499 29.6101 14.5068 20.248 16.6859 20.2476C18.865 20.2471 27.622 28.8045 27.622 28.8045M27.622 28.8045L36.3856 37.8357M27.622 28.8045C27.622 28.8045 31.1553 24.2001 33.3028 24.2601C35.4503 24.3201 43.1528 32.887 43.1528 32.887M7.34569 10.9156C9.27986 8.86337 40.489 9.012 42.1792 10.9156C43.8695 12.8192 44.5132 33.7014 42.1792 36.6311C39.8452 39.5608 9.00386 38.8534 7.34569 36.6311C5.68752 34.4088 5.41152 12.9678 7.34569 10.9156ZM31.847 17.2498C31.847 19.1319 30.2626 20.6576 28.3082 20.6576C26.3537 20.6576 24.7693 19.1319 24.7693 17.2498C24.7693 15.3678 26.3537 13.8421 28.3082 13.8421C30.2626 13.8421 31.847 15.3678 31.847 17.2498Z"
      stroke="currentColor" stroke-width="2" stroke-miterlimit="10" stroke-linecap="round"
      stroke-linejoin="round" />
  </symbol>

  <symbol id="arrow-left-dash" viewBox="0 0 28 29" fill="none">
    <path d="M12.1191 23.0551L3.24332 14.1794L12.1193 5.30375M24.7563 14.1794L3.62374 14.1794"
      stroke="currentColor" stroke-width="2" stroke-linecap="round" stroke-linejoin="round" />
  </symbol>

  <symbol id="camera" viewBox="0 0 32 33" fill="none">
    <path fill-rule="evenodd" clip-rule="evenodd"
      d="M12.2868 6.08203H19.6547L21.8997 8.49965H25.8139C26.5047 8.49965 27.0803 8.74909 27.5408 9.24796C28.0397 9.70846 28.2891 10.2841 28.2891 10.9748V23.7987C28.2891 24.4894 28.0397 25.0842 27.5408 25.5831C27.0803 26.0436 26.5047 26.2739 25.8139 26.2739H6.18514C5.49439 26.2739 4.89958 26.0436 4.40071 25.5831C3.94021 25.0842 3.70996 24.4894 3.70996 23.7987V10.9748C3.70996 10.2841 3.94021 9.70846 4.40071 9.24796C4.89958 8.74909 5.49439 8.49965 6.18514 8.49965H10.0418L12.2868 6.08203ZM12.0953 20.7067L12.0846 20.6958C11.0204 19.5948 10.4883 18.2877 10.4883 16.7747C10.4883 15.2617 11.0204 13.9719 12.0845 12.9052L12.0952 12.8943C13.162 11.7957 14.4518 11.2465 15.9649 11.2465C17.4754 11.2465 18.7635 11.7939 19.8292 12.8888C19.8363 12.8961 19.8435 12.9033 19.8507 12.9104C20.9457 13.9761 21.4931 15.2642 21.4931 16.7747C21.4931 18.2902 20.942 19.5991 19.8398 20.7013C18.772 21.7691 17.4804 22.303 15.9649 22.303C14.4519 22.303 13.162 21.7709 12.0953 20.7067Z"
      stroke="currentColor" stroke-width="2" stroke-linecap="round" stroke-linejoin="round" />
  </symbol>

  <symbol id="star" viewBox="0 0 48 48" fill="none">
    <path
      d="M15.0392 42.7947C14.3733 42.7947 13.7401 42.6749 13.1615 42.4354C11.4476 41.7384 10.5742 40.0506 10.5633 37.4154C10.5524 35.695 10.8908 33.724 11.2401 31.8511C11.3821 31.0997 11.6441 29.6733 11.6987 28.9001C10.0174 27.5825 5.37773 23.6189 5.20306 20.0364C5.13756 18.7841 5.60698 17.6407 6.52401 16.8349C7.87771 15.6262 9.90827 15.0382 12.7248 15.0382C14.1004 15.0382 15.3995 15.1798 16.3493 15.2778C16.382 15.2778 16.4148 15.2887 16.4366 15.2887C16.775 14.6462 17.2226 13.5791 17.4737 12.9911C17.5501 12.806 17.6266 12.6099 17.7139 12.4248C19.0349 9.23431 20.5414 5.60822 23.62 5.23799C23.7728 5.21621 23.9257 5.20532 24.0785 5.20532C26.2728 5.20532 28.1287 6.94759 29.7553 10.5301C30.3339 11.815 30.8907 13.3504 31.3929 15.0382C31.5457 15.0382 31.6985 15.0382 31.8623 15.0382C38.4452 15.0382 41.9823 16.3776 42.681 19.1434C43.4779 22.3122 40.2247 24.98 37.3426 27.3321C36.8513 27.735 36.0544 28.3883 35.5959 28.8239C35.7378 29.2921 35.9671 29.9455 36.1199 30.4028C36.6985 32.0689 37.419 34.1378 37.6374 36.0543C38.0195 39.5062 36.5347 41.096 35.2138 41.8256C34.5588 42.1849 33.8273 42.37 33.0195 42.37C30.3339 42.37 27.4191 40.2902 25.0719 38.6133C24.8318 38.439 24.4715 38.1886 24.1549 37.9708C23.8274 38.1995 23.4562 38.4608 23.227 38.6241C22.9431 38.831 22.6265 39.0706 22.2881 39.3102C20.192 40.8455 17.5829 42.7947 15.0392 42.7947Z"
      stroke="currentColor" stroke-width="2" stroke-miterlimit="10" stroke-linejoin="round" />
  </symbol>

  <symbol id="book" viewBox="0 0 48 48" fill="none">
    <path
      d="M9.8323 9.82682C9.8323 4.64136 17.0921 4.91121 23.6638 4.91121C30.2355 4.91121 36.354 5.59566 36.354 5.59566L36.4161 14.0575M9.8323 9.82682C9.8323 14.1859 16.9426 14.0564 23.2342 14.057C29.5258 14.0575 35.8404 14.057 38.1676 14.057C38.1676 14.057 38.7387 20.7897 38.7387 28.2304C38.7387 35.6711 38.1665 42.4039 38.1665 42.4039C38.1665 42.4039 33.4439 42.8421 26.1752 42.8421C18.9065 42.8421 14.1839 42.4044 14.1839 42.4044C11.7806 42.4044 9.8323 40.4552 9.8323 38.0508C9.8323 38.0508 9.44141 31.9254 9.44141 23.8822C9.44141 15.839 9.8323 9.82682 9.8323 9.82682Z"
      stroke="currentColor" stroke-width="2" stroke-miterlimit="10" stroke-linecap="round"
      stroke-linejoin="round" />
  </symbol>

  <symbol id="profile" viewBox="0 0 49 49" fill="none">
    <path
      d="M25.0097 23.8196C5.62246 23.8196 8.21064 40.7857 8.21064 40.7857C8.21064 40.7857 14.7045 43.4586 24.944 43.4586C35.1836 43.4586 41.6774 40.786 41.6774 40.786C41.6774 40.786 44.3969 23.8196 25.0097 23.8196ZM25.0097 23.8196C19.9652 23.8196 15.8572 19.6903 15.836 14.6458C15.836 9.6226 19.9439 5.51465 25.0097 5.51465C30.0754 5.51465 34.1834 9.6226 34.1834 14.6458C34.1621 19.6903 30.0541 23.8196 25.0097 23.8196Z"
      stroke="currentColor" stroke-width="2" stroke-miterlimit="10" stroke-linecap="round"
      stroke-linejoin="round" />
  </symbol>

  <symbol id="question" viewBox="0 0 30 47" fill="none">
    <path
      d="M28.8534 15.2049C28.8534 -3.98581 1.05498 -1.82215 1.05498 12.8061C1.05498 22.9189 10.771 21.1655 10.771 28.362V28.362C10.771 30.1626 12.2307 31.6223 14.0313 31.6223H15.3863C17.1869 31.6223 18.6466 30.1626 18.6466 28.362V28.362C18.6466 17.4496 9.42747 21.1315 9.42747 14.2642C9.42747 7.39693 20.9043 6.92658 20.9043 15.2049V15.2049C20.9043 17.0984 22.4393 18.6334 24.3328 18.6334H25.425C27.3185 18.6334 28.8535 17.0984 28.8534 15.2049V15.2049Z"
      stroke="currentColor" stroke-width="2" stroke-miterlimit="10" stroke-linecap="round"
      stroke-linejoin="round" />
    <path
      d="M10.0997 40.7129C10.0997 43.2378 12.1466 45.2846 14.6714 45.2846H14.9957C17.5206 45.2846 19.5674 43.2378 19.5674 40.7129V40.7129C19.5674 38.188 17.5206 36.1412 14.9957 36.1412H14.6714C12.1466 36.1412 10.0997 38.188 10.0997 40.7129V40.7129Z"
      stroke="currentColor" stroke-width="2" stroke-miterlimit="10" stroke-linecap="round"
      stroke-linejoin="round" />
  </symbol>

  <symbol id="location" viewBox="0 0 25 26" fill="none">
    <path
      d="M7.51309 5.27666C8.88669 3.90549 10.5413 3.21991 12.4768 3.21991C14.4123 3.21991 16.0669 3.90549 17.4405 5.27666C18.8141 6.61667 19.5009 8.25272 19.5009 10.1848C19.5009 11.1509 19.2512 12.2727 18.7517 13.5504C18.2834 14.7969 17.7059 15.9655 17.0191 17.0562C16.3323 18.1158 15.6455 19.1286 14.9587 20.0946C14.2718 21.0295 13.6943 21.7774 13.226 22.3384L12.4768 23.133C12.2895 22.946 12.0397 22.6656 11.7276 22.2916C11.4154 21.9177 10.8534 21.2009 10.0418 20.1414C9.26131 19.0507 8.5589 18.0067 7.93454 17.0095C7.31017 15.9811 6.74824 14.8281 6.24875 13.5504C5.74926 12.2727 5.49951 11.1509 5.49951 10.1848C5.49951 8.25272 6.1707 6.61667 7.51309 5.27666ZM10.6974 11.9611C11.1968 12.4285 11.79 12.6623 12.4768 12.6623C13.1636 12.6623 13.7567 12.4285 14.2562 11.9611C14.7557 11.4625 15.0055 10.8704 15.0055 10.1848C15.0055 9.49924 14.7557 8.92272 14.2562 8.45528C13.7567 7.95667 13.1636 7.70737 12.4768 7.70737C11.79 7.70737 11.1968 7.95667 10.6974 8.45528C10.2291 8.92272 9.99494 9.49924 9.99494 10.1848C9.99494 10.8704 10.2291 11.4625 10.6974 11.9611Z"
      fill="currentColor" />
  </symbol>

  <symbol id="phone" viewBox="0 0 25 26" fill="none">
    <path
      d="M22.1908 18.4214C22.1908 18.6691 22.145 18.9949 22.0532 19.3987C21.9614 19.7933 21.8651 20.1053 21.7641 20.3347C21.5714 20.7936 21.0116 21.2799 20.0848 21.7938C19.2222 22.2618 18.3687 22.4958 17.5245 22.4958C17.2767 22.4958 17.0335 22.4821 16.7949 22.4545C16.5655 22.4178 16.304 22.3582 16.0103 22.2756C15.7167 22.193 15.4964 22.1288 15.3496 22.0829C15.2119 22.0278 14.9596 21.9315 14.5925 21.7938C14.2254 21.6562 14.0006 21.5736 13.918 21.546C13.0187 21.2249 12.2157 20.844 11.5091 20.4035C10.3345 19.6786 9.11858 18.6921 7.86136 17.444C6.61333 16.1868 5.62683 14.9709 4.90187 13.7963C4.46138 13.0897 4.08055 12.2867 3.75936 11.3874C3.73183 11.3048 3.64924 11.08 3.51159 10.7129C3.37394 10.3458 3.27758 10.0935 3.22252 9.95582C3.17664 9.80899 3.1124 9.58875 3.02981 9.2951C2.94722 9.00144 2.88757 8.7399 2.85087 8.51049C2.82334 8.27189 2.80957 8.02871 2.80957 7.78093C2.80957 6.93667 3.04358 6.08324 3.51159 5.22062C4.02549 4.29377 4.51186 3.73399 4.97069 3.54128C5.20011 3.44034 5.51212 3.34398 5.90672 3.25222C6.3105 3.16045 6.63627 3.11456 6.88404 3.11456C7.01252 3.11456 7.10887 3.12833 7.17311 3.15586C7.33829 3.21092 7.58147 3.55964 7.90266 4.20201C8.0036 4.37636 8.14126 4.62414 8.31561 4.94532C8.48997 5.26651 8.65056 5.56016 8.79739 5.82629C8.94422 6.08324 9.08646 6.32642 9.22411 6.55584C9.25164 6.59255 9.32964 6.70726 9.45812 6.89997C9.59577 7.09268 9.69671 7.25786 9.76095 7.39551C9.82519 7.52399 9.85731 7.65246 9.85731 7.78093C9.85731 7.96447 9.72424 8.19389 9.45812 8.46919C9.20117 8.74449 8.91669 8.99685 8.60468 9.22627C8.30185 9.45569 8.01737 9.69887 7.75124 9.95582C7.4943 10.2128 7.36582 10.4238 7.36582 10.589C7.36582 10.6716 7.38876 10.7771 7.43465 10.9056C7.48053 11.0249 7.51724 11.1167 7.54477 11.1809C7.58147 11.2452 7.64571 11.3553 7.73748 11.5113C7.83842 11.6673 7.89348 11.7545 7.90266 11.7728C8.60009 13.03 9.39847 14.1083 10.2978 15.0076C11.1971 15.9069 12.2754 16.7053 13.5326 17.4027C13.5509 17.4119 13.6381 17.467 13.7941 17.5679C13.9501 17.6597 14.0603 17.7239 14.1245 17.7606C14.1887 17.7882 14.2805 17.8249 14.3998 17.8708C14.5283 17.9166 14.6338 17.9396 14.7164 17.9396C14.8816 17.9396 15.0926 17.8111 15.3496 17.5542C15.6065 17.288 15.8497 17.0036 16.0791 16.7007C16.3086 16.3887 16.5609 16.1042 16.8362 15.8473C17.1115 15.5812 17.3409 15.4481 17.5245 15.4481C17.6529 15.4481 17.7814 15.4802 17.9099 15.5445C18.0475 15.6087 18.2127 15.7096 18.4054 15.8473C18.5981 15.9758 18.7129 16.0538 18.7496 16.0813C18.979 16.2189 19.2222 16.3612 19.4791 16.508C19.7452 16.6548 20.0389 16.8154 20.3601 16.9898C20.6813 17.1642 20.929 17.3018 21.1034 17.4027C21.7458 17.7239 22.0945 17.9671 22.1495 18.1323C22.1771 18.1965 22.1908 18.2929 22.1908 18.4214Z"
      fill="currentColor" />
  </symbol>

  <symbol id="x" viewBox="0 0 32 33" fill="none">
    <path
      d="M28.4218 8.5749C27.4979 8.98016 26.5135 9.24877 25.4872 9.3792C26.543 8.74881 27.3489 7.75819 27.7277 6.56416C26.7433 7.15108 25.6564 7.56565 24.4981 7.797C23.5634 6.80172 22.2312 6.1853 20.7778 6.1853C17.9581 6.1853 15.6881 8.47398 15.6881 11.2797C15.6881 11.6834 15.7223 12.0716 15.8061 12.4411C11.5719 12.2346 7.82524 10.2052 5.30832 7.11382C4.8689 7.87619 4.61116 8.74881 4.61116 9.68819C4.61116 11.4521 5.51948 13.0156 6.87344 13.9208C6.05517 13.9053 5.25242 13.6678 4.57234 13.2936C4.57234 13.3091 4.57234 13.3293 4.57234 13.3494C4.57234 15.8244 6.33776 17.8802 8.65283 18.3538C8.23826 18.4671 7.78642 18.5215 7.31751 18.5215C6.99144 18.5215 6.66227 18.5029 6.35328 18.4345C7.01318 20.4515 8.88573 21.9343 11.1123 21.9824C9.37949 23.3379 7.17932 24.1547 4.79748 24.1547C4.37981 24.1547 3.97921 24.136 3.57861 24.0848C5.83468 25.5397 8.50843 26.3704 11.3918 26.3704C20.7639 26.3704 25.8878 18.6069 25.8878 11.8775C25.8878 11.6523 25.88 11.435 25.8691 11.2191C26.8799 10.5018 27.7293 9.60589 28.4218 8.5749Z"
      fill="currentColor" />
  </symbol>

  <symbol id="linkedin" viewBox="0 0 32 33" fill="none">
    <path
      d="M7.53087 5.13782C8.99651 5.13901 10.2053 6.34955 10.2021 7.82249C10.1986 9.3648 8.91871 10.5272 7.51283 10.4938C6.08686 10.5226 4.8337 9.33159 4.83398 7.81231C4.83398 6.33881 6.04747 5.13669 7.53087 5.13782Z"
      fill="currentColor" />
    <path
      d="M9.08804 27.4145H5.94787C5.54033 27.4145 5.20996 27.0842 5.20996 26.6766V13.2805C5.20996 12.873 5.54033 12.5426 5.94787 12.5426H9.08804C9.49558 12.5426 9.82595 12.873 9.82595 13.2805V26.6767C9.82588 27.0842 9.49558 27.4145 9.08804 27.4145Z"
      fill="currentColor" />
    <path
      d="M27.1657 17.2479C27.1657 14.4396 24.8891 12.1628 22.0806 12.1628H21.2752C19.7387 12.1628 18.3813 12.9295 17.5648 14.1012C17.4758 14.229 17.3933 14.3616 17.3176 14.4985C17.2915 14.4946 17.2759 14.4926 17.2756 14.4933V12.8489C17.2756 12.6798 17.1384 12.5426 16.9692 12.5426H13.0515C12.8823 12.5426 12.7451 12.6797 12.7451 12.8489V27.1084C12.7451 27.2775 12.8822 27.4146 13.0513 27.4147L17.0545 27.4157C17.2237 27.4158 17.3609 27.2786 17.3609 27.1093V18.8713C17.3609 17.4473 18.4967 16.2649 19.9206 16.2488C20.6475 16.2406 21.3065 16.5319 21.7814 17.0071C22.2501 17.4755 22.5399 18.1232 22.5399 18.8383V27.1104C22.5399 27.2795 22.677 27.4167 22.8461 27.4167L26.8591 27.4177C27.0284 27.4178 27.1656 27.2806 27.1656 27.1114V17.2479H27.1657Z"
      fill="currentColor" />
  </symbol>


</svg>